HIERARCHY
ROOT hip
{
  OFFSET 46.851 82.134 -2.21286
  CHANNELS 6 Xposition Yposition Zposition Zrotation Xrotation Yrotation
  JOINT abdomen
  {
    OFFSET 0 20.6881 -0.73152
    CHANNELS 3 Zrotation Xrotation Yrotation
    JOINT chest
    {
      OFFSET 0 11.7043 -0.48768
      CHANNELS 3 Zrotation Xrotation Yrotation
      JOINT neck
      {
        OFFSET 0 22.1894 -2.19456
        CHANNELS 3 Zrotation Xrotation Yrotation
        JOINT head
        {
          OFFSET -0.24384 7.07133 1.2192
          CHANNELS 3 Zrotation Xrotation Yrotation
          JOINT leftEye
          {
            OFFSET 4.14528 8.04674 8.04672
            CHANNELS 3 Zrotation Xrotation Yrotation
            End Site
            {
              OFFSET 1 0 0
            }
          }
          JOINT rightEye
          {
            OFFSET -3.6576 8.04674 8.04672
            CHANNELS 3 Zrotation Xrotation Yrotation
            End Site
            {
              OFFSET 1 0 0
            }
          }
        }
      }
      JOINT rCollar
      {
        OFFSET -2.68224 19.2634 -4.8768
        CHANNELS 3 Zrotation Xrotation Yrotation
        JOINT rShldr
        {
          OFFSET -8.77824 -1.95073 1.46304
          CHANNELS 3 Zrotation Xrotation Yrotation
          JOINT rForeArm
          {
            OFFSET -28.1742 -1.7115 0.48768
            CHANNELS 3 Zrotation Xrotation Yrotation
            JOINT rHand
            {
              OFFSET -22.5879 0.773209 7.07136
              CHANNELS 3 Zrotation Xrotation Yrotation
              JOINT rThumb1
              {
                OFFSET -1.2192 -0.487915 3.41376
                CHANNELS 3 Zrotation Xrotation Yrotation
                JOINT rThumb2
                {
                  OFFSET -3.37035 -0.52449 3.41376
                  CHANNELS 3 Zrotation Xrotation Yrotation
                  End Site
                  {
                    OFFSET -1.78271 -1.18214 1.43049
                  }
                }
              }
              JOINT rIndex1
              {
                OFFSET -7.75947 0.938293 5.60832
                CHANNELS 3 Zrotation Xrotation Yrotation
                JOINT rIndex2
                {
                  OFFSET -2.54057 -0.884171 1.56538
                  CHANNELS 3 Zrotation Xrotation Yrotation
                  End Site
                  {
                    OFFSET -1.62519 -0.234802 1.16502
                  }
                }
              }
              JOINT rMid1
              {
                OFFSET -8.24714 1.18213 3.41376
                CHANNELS 3 Zrotation Xrotation Yrotation
                JOINT rMid2
                {
                  OFFSET -3.10165 -0.590103 1.0647
                  CHANNELS 3 Zrotation Xrotation Yrotation
                  End Site
                  {
                    OFFSET -2.48547 -0.328903 0.83742
                  }
                }
              }
              JOINT rRing1
              {
                OFFSET -8.82822 0.546677 1.51678
                CHANNELS 3 Zrotation Xrotation Yrotation
                JOINT rRing2
                {
                  OFFSET -2.60934 -0.819778 -0.0198488
                  CHANNELS 3 Zrotation Xrotation Yrotation
                  End Site
                  {
                    OFFSET -2.33842 -0.294052 0.168128
                  }
                }
              }
              JOINT rPinky1
              {
                OFFSET -8.27202 -0.0477905 -0.4584
                CHANNELS 3 Zrotation Xrotation Yrotation
                JOINT rPinky2
                {
                  OFFSET -1.82734 -0.647385 -0.700984
                  CHANNELS 3 Zrotation Xrotation Yrotation
                  End Site
                  {
                    OFFSET -1.69225 -0.51767 -0.607171
                  }
                }
              }
            }
          }
        }
      }
      JOINT lCollar
      {
        OFFSET 2.68224 19.2634 -4.8768
        CHANNELS 3 Zrotation Xrotation Yrotation
        JOINT lShldr
        {
          OFFSET 8.77824 -1.95073 1.46304
          CHANNELS 3 Zrotation Xrotation Yrotation
          JOINT lForeArm
          {
            OFFSET 28.1742 -1.7115 0.48768
            CHANNELS 3 Zrotation Xrotation Yrotation
            JOINT lHand
            {
              OFFSET 22.5879 0.773209 7.07136
              CHANNELS 3 Zrotation Xrotation Yrotation
              JOINT lThumb1
              {
                OFFSET 1.2192 -0.487915 3.41376
                CHANNELS 3 Zrotation Xrotation Yrotation
                JOINT lThumb2
                {
                  OFFSET 3.37035 -0.52449 3.41376
                  CHANNELS 3 Zrotation Xrotation Yrotation
                  End Site
                  {
                    OFFSET 1.78271 -1.18214 1.43049
                  }
                }
              }
              JOINT lIndex1
              {
                OFFSET 7.75947 0.938293 5.60832
                CHANNELS 3 Zrotation Xrotation Yrotation
                JOINT lIndex2
                {
                  OFFSET 2.54057 -0.884171 1.56538
                  CHANNELS 3 Zrotation Xrotation Yrotation
                  End Site
                  {
                    OFFSET 1.62519 -0.234802 1.16502
                  }
                }
              }
              JOINT lMid1
              {
                OFFSET 8.24714 1.18213 3.41376
                CHANNELS 3 Zrotation Xrotation Yrotation
                JOINT lMid2
                {
                  OFFSET 3.10165 -0.590103 1.0647
                  CHANNELS 3 Zrotation Xrotation Yrotation
                  End Site
                  {
                    OFFSET 2.48547 -0.328903 0.83742
                  }
                }
              }
              JOINT lRing1
              {
                OFFSET 8.82822 0.546677 1.51678
                CHANNELS 3 Zrotation Xrotation Yrotation
                JOINT lRing2
                {
                  OFFSET 2.60934 -0.819778 -0.0198488
                  CHANNELS 3 Zrotation Xrotation Yrotation
                  End Site
                  {
                    OFFSET 2.33842 -0.294052 0.168128
                  }
                }
              }
              JOINT lPinky1
              {
                OFFSET 8.27202 -0.0477905 -0.4584
                CHANNELS 3 Zrotation Xrotation Yrotation
                JOINT lPinky2
                {
                  OFFSET 1.82734 -0.647385 -0.700984
                  CHANNELS 3 Zrotation Xrotation Yrotation
                  End Site
                  {
                    OFFSET 1.69225 -0.51767 -0.607171
                  }
                }
              }
            }
          }
        }
      }
    }
  }
  JOINT rButtock
  {
    OFFSET -8.77824 4.35084 1.2192
    CHANNELS 3 Zrotation Xrotation Yrotation
    JOINT rThigh
    {
      OFFSET 0 -1.70687 -2.19456
      CHANNELS 3 Zrotation Xrotation Yrotation
      JOINT rShin
      {
        OFFSET 0 -36.8199 0.73152
        CHANNELS 3 Zrotation Xrotation Yrotation
        JOINT rFoot
        {
          OFFSET 0.73152 -45.1104 -5.12064
          CHANNELS 3 Zrotation Xrotation Yrotation
          End Site
          {
            OFFSET -1.1221 -3.69964 12.103
          }
        }
      }
    }
  }
  JOINT lButtock
  {
    OFFSET 8.77824 4.35084 1.2192
    CHANNELS 3 Zrotation Xrotation Yrotation
    JOINT lThigh
    {
      OFFSET 0 -1.70687 -2.19456
      CHANNELS 3 Zrotation Xrotation Yrotation
      JOINT lShin
      {
        OFFSET 0 -36.8199 0.73152
        CHANNELS 3 Zrotation Xrotation Yrotation
        JOINT lFoot
        {
          OFFSET -0.73152 -45.1104 -5.12064
          CHANNELS 3 Zrotation Xrotation Yrotation
          End Site
          {
            OFFSET 1.1221 -3.69964 12.103
          }
        }
      }
    }
  }
}
MOTION
Frames:	7
Frame Time:	0.00833333
-51.3586 83.9933 -8.65504 1.297 0.00389264 -0.0244123 -1.70622 -0.00254498 -0.0464503 -0.470562 0.00242738 -0.081485 7.46452e-015 7.95139e-016 -1.98785e-016 2.25745e-014 9.54166e-015 -5.76165e-016 -0 0 0 -0 0 0 3.92545e-015 1.13369e-016 0 8.18513e-014 2.52208e-015 -5.96354e-016 1.37907e-012 -3.23025e-013 -4.45278e-014 1.56406e-011 8.38946e-013 -3.94389e-013 3.69139e-011 1.11459e-012 -9.47805e-013 6.37395e-011 1.92424e-012 -1.6515e-012 3.69203e-011 1.11677e-012 -9.66889e-013 7.73091 5.47488 0.417314 3.6913e-011 1.11459e-012 -9.47805e-013 2.90554 0.965183 0.102902 3.69228e-011 1.11498e-012 -9.54962e-013 10.2786 0.731801 0.0259123 3.69125e-011 1.11796e-012 -9.54166e-013 2.22167 -0.733487 -0.20892 3.82739e-015 1.15699e-016 -1.98785e-016 7.76195e-014 2.41648e-015 -2.78299e-015 1.35591e-012 4.91992e-013 -5.08889e-014 1.56432e-011 2.12451e-014 -3.84847e-013 3.68793e-011 1.10935e-012 -9.41444e-013 6.36942e-011 1.91787e-012 -1.63003e-012 3.68742e-011 1.11081e-012 -9.41444e-013 -7.73091 5.47488 -0.417314 3.68788e-011 1.10912e-012 -9.47805e-013 -2.90554 0.965183 -0.102902 3.68692e-011 1.10942e-012 -9.44625e-013 -10.2786 0.731801 -0.0259123 3.68837e-011 1.11041e-012 -9.54166e-013 -2.22167 -0.733487 0.20892 -2.03217e-016 0 -3.88251e-019 -0.810599 -1.92439 -0.00361325 -0.00901541 -2.07859 -0.0743126 -0.483871 3.99775 0.136138 2.03217e-016 0 3.88251e-019 -1.78649 -6.85421 0.17048 -0.00323812 6.85139 -0.086386 0.513035 -0.00231403 -0.0581932 
-48.9728 82.1561 -11.4865 1.71901 2.71787 13.1601 -3.05076 1.37711 -1.40802 1.00864 -0.21875 -0.471549 -1.89439 1.10023 1.24631 1.24646 7.53945 2.97969 -0 0 0 -0 0 0 -2.52365e-014 1.47857e-013 2.19591e-013 21.087 3.64046 -0.0849979 -5.48704 -2.81105 8.19704 0.0625703 5.55489 0.767511 -8.9654e-010 -3.32008e-010 -7.17784e-010 -1.55866e-009 -5.96617e-010 -1.22401e-009 -8.96534e-010 -3.32007e-010 -7.17801e-010 7.73091 5.47488 0.417314 -8.96541e-010 -3.32009e-010 -7.17784e-010 2.90554 0.965183 0.102902 -8.96533e-010 -3.32008e-010 -7.17789e-010 10.2786 0.731801 0.0259123 -8.96542e-010 -3.32005e-010 -7.17784e-010 2.22167 -0.733487 -0.20892 -2.53501e-014 1.47865e-013 2.19345e-013 -22.3317 4.61969 -1.7047 3.53781 -1.49211 -5.64474 -0.0123555 2.4674 -0.345612 -1.00884e-009 -7.77598e-010 1.86151e-009 -1.7273e-009 -1.3458e-009 3.22623e-009 -1.00884e-009 -7.77597e-010 1.86152e-009 -7.73091 5.47488 -0.417314 -1.00884e-009 -7.77598e-010 1.86151e-009 -2.90554 0.965183 -0.102902 -1.00885e-009 -7.77598e-010 1.86151e-009 -10.2786 0.731801 -0.0259123 -1.00883e-009 -7.77598e-010 1.8615e-009 -2.22167 -0.733487 0.20892 -2.03217e-016 0 -3.88251e-019 -3.75256 -11.2553 -0.506423 0.0192869 10.487 0.117214 -0.710542 1.49836 -2.36879 2.03217e-016 0 3.88251e-019 -3.48756 -10.5863 1.97489 -0.0430541 13.7845 -0.248733 0.620739 -4.07064 0.931764 
-48.9268 82.1245 -11.5074 0.848085 5.09455 27.1718 -4.39851 2.82966 -2.84707 2.56649 -0.455784 -0.882996 -3.9422 2.25102 2.56089 1.68212 15.4455 6.29608 -0 0 0 -0 0 0 -5.94151e-014 3.12483e-013 4.63091e-013 43.399 7.50016 -0.173617 -10.4303 -5.59778 16.9371 -0.0359944 11.4091 1.60118 -1.89982e-009 -7.2509e-010 -1.47977e-009 -3.3022e-009 -1.30047e-009 -2.52319e-009 -1.89982e-009 -7.25091e-010 -1.47978e-009 7.73091 5.47488 0.417314 -1.89982e-009 -7.25092e-010 -1.47977e-009 2.90554 0.965183 0.102902 -1.89982e-009 -7.25091e-010 -1.47977e-009 10.2786 0.731801 0.0259123 -1.89982e-009 -7.25088e-010 -1.47976e-009 2.22167 -0.733487 -0.20892 -5.9546e-014 3.12497e-013 4.62792e-013 -45.636 9.48825 -3.54631 6.95155 -3.01591 -11.6113 0.00710109 5.08498 -0.714443 -2.12483e-009 -1.62653e-009 3.90304e-009 -3.63813e-009 -2.81494e-009 6.76417e-009 -2.12483e-009 -1.62653e-009 3.90304e-009 -7.73091 5.47488 -0.417314 -2.12483e-009 -1.62653e-009 3.90304e-009 -2.90554 0.965183 -0.102902 -2.12484e-009 -1.62653e-009 3.90304e-009 -10.2786 0.731801 -0.0259123 -2.12482e-009 -1.62653e-009 3.90303e-009 -2.22167 -0.733487 0.20892 -2.03217e-016 0 -3.88251e-019 -7.04774 -21.0901 -1.06815 -0.0488422 23.7457 0.344285 -1.1843 -1.12578 -5.00369 2.03217e-016 0 3.88251e-019 -5.01217 -14.5105 3.94325 -0.0391211 21.1153 -0.435259 0.89014 -8.36606 2.00308 
-48.8847 82.0641 -11.5262 -0.873144 6.44711 39.7849 -5.54287 4.12692 -4.14071 3.95801 -0.660969 -1.25175 -5.82686 3.29445 3.74444 1.23549 22.3635 9.58898 -0 0 0 -0 0 0 -8.35605e-014 4.43345e-013 6.58772e-013 63.2939 10.9213 -0.259173 -14.1122 -7.74417 24.8026 -0.27525 16.6525 2.3921 -2.76345e-009 -9.98253e-010 -2.15146e-009 -4.80346e-009 -1.7937e-009 -3.66871e-009 -2.76344e-009 -9.98255e-010 -2.15147e-009 7.73091 5.47488 0.417314 -2.76345e-009 -9.98255e-010 -2.15146e-009 2.90554 0.965183 0.102902 -2.76344e-009 -9.98254e-010 -2.15146e-009 10.2786 0.731801 0.0259123 -2.76345e-009 -9.98251e-010 -2.15144e-009 2.22167 -0.733487 -0.20892 -8.3705e-014 4.43363e-013 6.58433e-013 -66.1509 13.8093 -5.24964 9.74358 -4.30286 -16.9778 0.0528683 7.40113 -1.04458 -3.10027e-009 -2.33501e-009 5.58642e-009 -5.30928e-009 -4.04124e-009 9.68196e-009 -3.10028e-009 -2.33501e-009 5.58644e-009 -7.73091 5.47488 -0.417314 -3.10027e-009 -2.33501e-009 5.58643e-009 -2.90554 0.965183 -0.102902 -3.10029e-009 -2.33501e-009 5.58643e-009 -10.2786 0.731801 -0.0259123 -3.10027e-009 -2.33501e-009 5.58642e-009 -2.22167 -0.733487 0.20892 -2.03217e-016 0 -3.88251e-019 -10.1933 -29.9074 -1.71069 -0.219608 35.6168 0.608047 -1.81821 -3.46764 -7.38916 2.03217e-016 0 3.88251e-019 -6.15163 -17.9833 5.76793 0.00993694 27.6496 -0.624488 1.26588 -12.193 2.97172 
-48.8207 82.0115 -11.5663 -2.45864 6.83496 48.6667 -6.31639 5.0448 -5.06192 4.94027 -0.786663 -1.5137 -7.20528 4.0752 4.59544 0.393736 27.0499 12.2083 -0 0 0 -0 0 0 -8.26228e-014 4.89796e-013 7.34907e-013 77.1244 13.2461 -0.333298 -16.2854 -8.95511 30.2774 -0.53806 20.3798 2.99279 -3.27794e-009 -9.71617e-010 -2.59741e-009 -5.69902e-009 -1.76038e-009 -4.4301e-009 -3.27794e-009 -9.7162e-010 -2.59742e-009 7.73091 5.47488 0.417314 -3.27795e-009 -9.71619e-010 -2.59741e-009 2.90554 0.965183 0.102902 -3.27794e-009 -9.71618e-010 -2.59741e-009 10.2786 0.731801 0.0259123 -3.27795e-009 -9.71615e-010 -2.5974e-009 2.22167 -0.733487 -0.20892 -8.27716e-014 4.89814e-013 7.34559e-013 -80.2969 16.8091 -6.47814 11.5818 -5.15963 -20.8033 0.0995937 8.96476 -1.2704 -3.72436e-009 -2.69238e-009 6.37449e-009 -6.3812e-009 -4.66042e-009 1.10494e-008 -3.72437e-009 -2.69238e-009 6.3745e-009 -7.73091 5.47488 -0.417314 -3.72436e-009 -2.69238e-009 6.37449e-009 -2.90554 0.965183 -0.102902 -3.72438e-009 -2.69238e-009 6.37449e-009 -10.2786 0.731801 -0.0259123 -3.72436e-009 -2.69239e-009 6.37448e-009 -2.22167 -0.733487 0.20892 -2.03217e-016 0 -3.88251e-019 -12.6011 -36.1877 -2.3976 -0.432727 44.0206 0.864501 -2.40131 -5.13952 -9.13061 2.03217e-016 0 3.88251e-019 -6.85992 -20.3867 7.07859 0.0739557 32.1936 -0.776353 1.59571 -14.8629 3.62527 
-48.7688 81.9754 -11.6042 -3.12845 6.91504 52.2786 -6.64575 5.44132 -5.44949 5.3481 -0.799103 -1.62476 -7.82625 4.49751 4.97906 -0.0575362 28.787 13.4127 -0 0 0 -0 0 0 -4.22072e-014 4.05569e-013 6.38753e-013 82.4645 14.0139 -0.388085 -17.009 -9.31047 32.3057 -0.675968 22.0246 3.26982 -3.36852e-009 -4.67757e-010 -2.7801e-009 -5.85968e-009 -8.92248e-010 -4.74357e-009 -3.36852e-009 -4.6776e-010 -2.78012e-009 7.73091 5.47488 0.417314 -3.36852e-009 -4.6776e-010 -2.7801e-009 2.90554 0.965183 0.102902 -3.36852e-009 -4.67759e-010 -2.7801e-009 10.2786 0.731801 0.0259123 -3.36852e-009 -4.67756e-010 -2.78009e-009 2.22167 -0.733487 -0.20892 -4.23497e-014 4.0558e-013 6.38449e-013 -85.7989 18.0002 -6.94835 12.3459 -5.53008 -22.4572 0.119313 9.49735 -1.34807 -3.93242e-009 -2.58895e-009 5.89284e-009 -6.74577e-009 -4.48319e-009 1.02188e-008 -3.93243e-009 -2.58895e-009 5.89285e-009 -7.73091 5.47488 -0.417314 -3.93243e-009 -2.58895e-009 5.89285e-009 -2.90554 0.965183 -0.102902 -3.93244e-009 -2.58895e-009 5.89285e-009 -10.2786 0.731801 -0.0259123 -3.93243e-009 -2.58895e-009 5.89284e-009 -2.22167 -0.733487 0.20892 -2.03217e-016 0 -3.88251e-019 -13.7781 -38.9326 -3.01399 -0.555188 47.6074 1.00429 -2.72325 -5.91459 -9.98559 2.03217e-016 0 3.88251e-019 -7.23451 -21.3349 7.5559 0.105565 33.9515 -0.843994 1.72062 -15.9157 3.80614 
-48.6747 81.9529 -11.658 -3.02658 7.07195 52.1337 -6.67225 5.46717 -5.45428 5.34642 -0.730769 -1.62808 -7.89485 4.66486 5.02759 0.020947 28.4787 13.4579 -0 0 0 -0 0 0 2.6199e-014 2.28595e-013 4.19771e-013 81.7361 13.6707 -0.428041 -16.8277 -9.17575 31.85 -0.68182 22.1833 3.29491 -3.15321e-009 3.74238e-010 -2.77224e-009 -5.49004e-009 5.67534e-010 -4.73283e-009 -3.1532e-009 3.74235e-010 -2.77225e-009 7.73091 5.47488 0.417314 -3.15321e-009 3.74235e-010 -2.77224e-009 2.90554 0.965183 0.102902 -3.1532e-009 3.74235e-010 -2.77224e-009 10.2786 0.731801 0.0259123 -3.15321e-009 3.74238e-010 -2.77224e-009 2.22167 -0.733487 -0.20892 2.60707e-014 2.28595e-013 4.19547e-013 -85.1958 17.9091 -6.8492 12.4031 -5.58752 -22.5523 0.113548 9.29263 -1.31839 -3.83971e-009 -2.1549e-009 4.50504e-009 -6.59881e-009 -3.73454e-009 7.81968e-009 -3.83971e-009 -2.1549e-009 4.50504e-009 -7.73091 5.47488 -0.417314 -3.83971e-009 -2.15489e-009 4.50504e-009 -2.90554 0.965183 -0.102902 -3.83972e-009 -2.15489e-009 4.50504e-009 -10.2786 0.731801 -0.0259123 -3.83971e-009 -2.15489e-009 4.50503e-009 -2.22167 -0.733487 0.20892 -2.03217e-016 0 -3.88251e-019 -13.9802 -39.1542 -3.51176 -0.55569 47.7524 1.0131 -2.80708 -6.05849 -10.1976 2.03217e-016 0 3.88251e-019 -7.42961 -21.254 7.41255 0.0992219 33.7197 -0.841406 1.66732 -15.8162 3.63721 
